<?xml version="1.0" encoding="UTF-8" standalone="no"?>
<svg
   xmlns:osb="http://www.openswatchbook.org/uri/2009/osb"
   xmlns:dc="http://purl.org/dc/elements/1.1/"
   xmlns:cc="http://creativecommons.org/ns#"
   xmlns:rdf="http://www.w3.org/1999/02/22-rdf-syntax-ns#"
   xmlns:svg="http://www.w3.org/2000/svg"
   xmlns="http://www.w3.org/2000/svg"
   xmlns:xlink="http://www.w3.org/1999/xlink"
   xmlns:sodipodi="http://sodipodi.sourceforge.net/DTD/sodipodi-0.dtd"
   xmlns:inkscape="http://www.inkscape.org/namespaces/inkscape"
   enable-background="new 0 0 48 48"
   height="48px"
   version="1.1"
   viewBox="0 0 48 48"
   width="48px"
   xml:space="preserve"
   id="svg3050"
   inkscape:version="0.48.4 r9939"
   sodipodi:docname="icon-email.svg"><metadata
     id="metadata3075"><rdf:RDF><cc:Work
         rdf:about=""><dc:format>image/svg+xml</dc:format><dc:type
           rdf:resource="http://purl.org/dc/dcmitype/StillImage" /></cc:Work></rdf:RDF></metadata><defs
     id="defs3073"><linearGradient
       id="linearGradient3853"
       osb:paint="solid"><stop
         style="stop-color:#957e51;stop-opacity:1;"
         offset="0"
         id="stop3855" /></linearGradient><linearGradient
       inkscape:collect="always"
       xlink:href="#linearGradient3853"
       id="linearGradient3857"
       x1="0"
       y1="24"
       x2="48"
       y2="24"
       gradientUnits="userSpaceOnUse" /></defs><sodipodi:namedview
     pagecolor="#ffffff"
     bordercolor="#666666"
     borderopacity="1"
     objecttolerance="10"
     gridtolerance="10"
     guidetolerance="10"
     inkscape:pageopacity="0"
     inkscape:pageshadow="2"
     inkscape:window-width="1301"
     inkscape:window-height="744"
     id="namedview3071"
     showgrid="false"
     inkscape:zoom="12.4375"
     inkscape:cx="9.8492462"
     inkscape:cy="24"
     inkscape:window-x="65"
     inkscape:window-y="24"
     inkscape:window-maximized="1"
     inkscape:current-layer="svg3050" /><g
     id="Expanded"
     style="opacity:1;fill-opacity:1;fill:url(#linearGradient3857)"><g
       id="g3053"
       style="fill-opacity:1;fill:url(#linearGradient3857)"><g
         id="g3055"
         style="fill-opacity:1;fill:url(#linearGradient3857)"><path
           d="M44,40H4c-2.206,0-4-1.794-4-4V12c0-2.206,1.794-4,4-4h40c2.206,0,4,1.794,4,4v24C48,38.206,46.206,40,44,40z M4,10     c-1.103,0-2,0.897-2,2v24c0,1.103,0.897,2,2,2h40c1.103,0,2-0.897,2-2V12c0-1.103-0.897-2-2-2H4z"
           id="path3057"
           style="fill-opacity:1;fill:url(#linearGradient3857)" /></g><g
         id="g3059"
         style="fill-opacity:1;fill:url(#linearGradient3857)"><path
           d="M24,29.191L6.457,17.84c-0.464-0.301-0.597-0.919-0.297-1.383s0.919-0.596,1.383-0.297L24,26.809L40.457,16.16     c0.464-0.299,1.083-0.167,1.383,0.297s0.167,1.082-0.297,1.383L24,29.191z"
           id="path3061"
           style="fill-opacity:1;fill:url(#linearGradient3857)" /></g><g
         id="g3063"
         style="fill-opacity:1;fill:url(#linearGradient3857)"><path
           d="M6.001,34c-0.323,0-0.641-0.156-0.833-0.445c-0.307-0.46-0.183-1.08,0.277-1.387l9-6c0.46-0.307,1.081-0.183,1.387,0.277     c0.307,0.46,0.183,1.08-0.277,1.387l-9,6C6.384,33.945,6.191,34,6.001,34z"
           id="path3065"
           style="fill-opacity:1;fill:url(#linearGradient3857)" /></g><g
         id="g3067"
         style="fill-opacity:1;fill:url(#linearGradient3857)"><path
           d="M41.999,34c-0.19,0-0.383-0.055-0.554-0.168l-9-6c-0.46-0.307-0.584-0.927-0.277-1.387     c0.306-0.46,0.926-0.584,1.387-0.277l9,6c0.46,0.307,0.584,0.927,0.277,1.387C42.64,33.844,42.322,34,41.999,34z"
           id="path3069"
           style="fill-opacity:1;fill:url(#linearGradient3857)" /></g></g></g></svg>